<svg width="25" height="23" viewBox="0 0 25 23" fill="none" xmlns="http://www.w3.org/2000/svg">
  <path
    fill-rule="evenodd"
    clip-rule="evenodd"
    d="m12.5 3.225.956-1.05c2.641-2.9 6.923-2.9 9.563 0 2.641 2.9 2.641 7.602 0 10.503l-8.606 9.452c-1.057 1.16-2.77 1.16-3.826 0l-8.606-9.452c-2.641-2.9-2.641-7.603 0-10.503 2.64-2.9 6.922-2.9 9.563 0l.956 1.05Zm6.25-.35a.948.948 0 0 0-.938.958c0 .53.42.959.938.959.863 0 1.563.715 1.563 1.597 0 .53.42.958.937.958a.948.948 0 0 0 .938-.958c0-1.94-1.54-3.514-3.438-3.514Z"
    fill="white"
  />
</svg>
