<svg width="25" height="25" viewBox="0 0 25 25" fill="none" xmlns="http://www.w3.org/2000/svg">
  <path
    fill-rule="evenodd"
    clip-rule="evenodd"
    d="M9.165 6.994c-.226-.501-.463-.513-.678-.519-.173-.006-.376-.006-.579-.006-.203 0-.527.075-.805.375S6.048 7.871 6.048 9.352c0 1.477 1.084 2.907 1.234 3.108.151.202 2.092 3.333 5.157 4.538 2.549 1.003 3.07.802 3.62.75.551-.052 1.785-.727 2.04-1.43.249-.704.249-1.303.174-1.43-.076-.127-.278-.202-.58-.352-.3-.15-1.784-.876-2.062-.98-.278-.098-.481-.15-.678.15-.203.3-.782.974-.956 1.176-.174.202-.353.225-.655.075-.3-.15-1.274-.467-2.427-1.493-.898-.796-1.506-1.782-1.68-2.082-.174-.3-.018-.461.133-.611.133-.133.301-.352.452-.525.15-.173.203-.3.301-.501.099-.202.052-.375-.023-.525-.075-.144-.666-1.632-.933-2.226Z"
    fill="white"
  />
  <path
    d="m0 24.263 1.715-6.227a11.907 11.907 0 0 1-1.61-6.014C.104 5.392 5.526 0 12.183 0c3.233 0 6.268 1.251 8.545 3.523a11.893 11.893 0 0 1 3.534 8.505c0 6.63-5.422 12.022-12.085 12.022h-.006c-2.022 0-4.009-.507-5.776-1.465L0 24.264Zm6.703-3.851.365.219a10.106 10.106 0 0 0 5.11 1.395h.006c5.533 0 10.04-4.48 10.04-9.992a9.921 9.921 0 0 0-2.937-7.07 9.988 9.988 0 0 0-7.103-2.929C6.65 2.03 2.144 6.51 2.144 12.022c0 1.886.527 3.725 1.535 5.316l.237.381-1.013 3.684 3.8-.991Z"
    fill="white"
  />
</svg>
