<svg xmlns="http://www.w3.org/2000/svg" data-name="Layer 1" viewBox="0 0 234.25 234.25"><path d="M117.13 55.55V39.5m-.79 16.15-2.95-11m2.21 11.31-4.61-8m3.98 8.48-5.87-5.87m5.39 6.5-7.13-4.12m6.83 4.85-8.66-2.32m8.55 3.11h-10.8m10.91.79-8.66 2.32m8.96-1.59-7.13 4.12m7.61-3.49-5.87 5.87m6.5-5.38-4.61 7.99m5.35-7.69-2.95 11m3.74-10.89v16.04m3.73-5.15-2.95-11m5.35 7.69-4.61-7.99m6.5 5.38-5.87-5.87m7.61 3.48-7.13-4.11m8.96 1.59-8.65-2.32m10.9-.79h-10.8m8.55-3.1-8.65 2.31m6.82-4.84-7.13 4.11m5.39-6.5-5.87 5.87m3.98-8.48-4.61 8m2.21-11.31-2.95 11m-14.63 2.94 13.85-19.09m0 38.18 13.84-19.09m-.05-.07-13.85-19.09m.06 38.25-13.85-19.09" style="fill:none;stroke:#e5066e;stroke-miterlimit:10;stroke-width:.5px"/><path d="M78.21 155.88c.24 0 .47-.23.7-.7a5.4 5.4 0 0 0 .35-2.3v-24a5.23 5.23 0 0 0-.35-2.28c-.23-.45-.46-.69-.7-.73h7.71c-.23 0-.46.24-.7.7a5.79 5.79 0 0 0-.35 2.36v21.38c0 .74.1 1.18.28 1.33a3.79 3.79 0 0 0 1.78.23H99.6a13.43 13.43 0 0 0 4.68-.68 5.87 5.87 0 0 0 2.33-1.33l-1 5v1Zm7.72-64.46A7.51 7.51 0 0 0 82.19 88 17.41 17.41 0 0 0 75 86.74H58.58c.23 0 .47.27.7.72a5.39 5.39 0 0 1 .35 2.28v24a6.1 6.1 0 0 1-.32 2.31c-.22.46-.45.7-.68.7h7.66c-.23 0-.47-.24-.7-.7a5.61 5.61 0 0 1-.35-2.31v-7.06H75a17.08 17.08 0 0 0 7.13-1.23A7.5 7.5 0 0 0 85.9 102a12.06 12.06 0 0 0 1.1-5.4 11.62 11.62 0 0 0-1.07-5.18Zm-5 8.34a4.07 4.07 0 0 1-2.13 2.2 11.22 11.22 0 0 1-4.85.8h-6.66a4.16 4.16 0 0 1-1.8-.2c-.17-.13-.25-.53-.25-1.2v-9.21c0-.67.08-1.06.25-1.18a4.72 4.72 0 0 1 1.8-.18H74a12.38 12.38 0 0 1 4.58.68 4.25 4.25 0 0 1 2.28 2 7 7 0 0 1 .65 3.15 9 9 0 0 1-.57 3.14Zm9.85 17.03c.24 0 .47-.24.7-.7a5.42 5.42 0 0 0 .36-2.31v-24a5.2 5.2 0 0 0-.36-2.28c-.23-.45-.46-.69-.7-.72h7.72c-.24 0-.47.23-.71.7a5.74 5.74 0 0 0-.35 2.35v24a5.61 5.61 0 0 0 .35 2.31c.24.46.47.7.71.7Zm12.72 0c.24 0 .47-.24.7-.7a5.42 5.42 0 0 0 .36-2.31v-24a5.2 5.2 0 0 0-.36-2.28c-.23-.45-.46-.69-.7-.72h7.77c0 .1.09.4.37.9a20.45 20.45 0 0 0 1.58 2.2c.23.3.73.9 1.48 1.81s1.69 2 2.83 3.33l3.68 4.3 4 4.71c1.36 1.59 2.65 3.1 3.89 4.53h.1V89.74a5.39 5.39 0 0 0-.35-2.28c-.24-.45-.47-.69-.71-.72h7.72c-.24 0-.47.23-.7.7a5.57 5.57 0 0 0-.35 2.35v24a5.45 5.45 0 0 0 .35 2.31c.23.46.46.7.7.7h-6.56c0-.1-.1-.41-.4-.93a18.51 18.51 0 0 0-1.61-2.18c-.5-.63-1.22-1.53-2.17-2.68s-2-2.47-3.24-4-2.47-3-3.83-4.69-2.69-3.27-4-4.91-2.57-3.15-3.74-4.55h-.15v20.88a5.42 5.42 0 0 0 .36 2.31c.23.46.46.7.7.7Zm37.37 0c.23 0 .46-.24.7-.7a5.61 5.61 0 0 0 .35-2.31v-24a5.39 5.39 0 0 0-.35-2.28c-.24-.45-.47-.69-.7-.72h7.71c-.24 0-.47.23-.7.7a5.57 5.57 0 0 0-.35 2.35V98c0 .73.1 1.16.3 1.3a4.34 4.34 0 0 0 1.75.2h.5a10.28 10.28 0 0 0 4.71-1.23 14.29 14.29 0 0 0 4.31-3.43 12.63 12.63 0 0 0 2.65-5 4 4 0 0 0 .18-2.3c-.19-.47-.41-.72-.68-.75h10.67a3 3 0 0 0-1.5.7 8.25 8.25 0 0 0-2.06 2.35c-.87 1.37-1.65 2.54-2.35 3.51a26.25 26.25 0 0 1-2 2.5 27.89 27.89 0 0 1-2.13 2.06 14.93 14.93 0 0 1-2.75 1.9c-.81.4-1.41.68-1.81.85v.15a17.26 17.26 0 0 1 2.86.93 19.77 19.77 0 0 1 3.8 2.18 22.62 22.62 0 0 1 4.54 4.23 47.48 47.48 0 0 1 3.63 5.18 12.08 12.08 0 0 0 2.1 2.68 2.78 2.78 0 0 0 1.45.83h-10.54a1.05 1.05 0 0 0 .9-.65 2.78 2.78 0 0 0-.2-2.11 14.85 14.85 0 0 0-2-3.73 16.94 16.94 0 0 0-3.35-3.43 16.69 16.69 0 0 0-4.61-2.48 17.06 17.06 0 0 0-5.76-.93h-.55a3.78 3.78 0 0 0-1.8.23c-.17.15-.25.63-.25 1.43v8.66a5.45 5.45 0 0 0 .35 2.31c.23.46.46.7.7.7Zm-67.82 25.29a8.72 8.72 0 0 0-4.9-2.72v-.11a6.65 6.65 0 0 0 1.9-1.12 6.11 6.11 0 0 0 2.2-4.89 7.19 7.19 0 0 0-1.07-3.93 6.9 6.9 0 0 0-3.51-2.58 19.13 19.13 0 0 0-6.49-.9H43.4c.24 0 .47.28.7.73a5.2 5.2 0 0 1 .36 2.28v24a5.37 5.37 0 0 1-.36 2.3c-.23.47-.46.7-.7.7h19.79a16.23 16.23 0 0 0 6.68-1.15 7.79 7.79 0 0 0 3.68-3.13 8.64 8.64 0 0 0 1.16-4.43 7.69 7.69 0 0 0-1.66-5.05Zm-23-10.74c0-.77.1-1.21.28-1.33a5.08 5.08 0 0 1 1.78-.17h8.66c2.17 0 3.7.34 4.59 1a3.65 3.65 0 0 1 1.33 3.16 4.31 4.31 0 0 1-1.32 3.53 6.53 6.53 0 0 1-4.14 1.07h-9.11a4.17 4.17 0 0 1-1.78-.2c-.18-.13-.28-.56-.28-1.3Zm17.47 19.16c-1 .88-2.8 1.33-5.23 1.33H52.07a4.14 4.14 0 0 1-1.73-.2c-.18-.14-.28-.57-.28-1.31v-6.71c0-.77.1-1.22.28-1.35a4.35 4.35 0 0 1 1.78-.2h8.66q4.75 0 6.54 1.18A4.16 4.16 0 0 1 69.1 147a4.39 4.39 0 0 1-1.58 3.5Zm41.59 5.38c.24 0 .47-.23.7-.7a5.4 5.4 0 0 0 .35-2.3v-24a5.23 5.23 0 0 0-.35-2.28c-.23-.45-.46-.69-.7-.73h7.72c-.24 0-.47.24-.71.7a5.79 5.79 0 0 0-.35 2.36v24a5.56 5.56 0 0 0 .35 2.3c.24.47.47.7.71.7Zm12.72 0c.24 0 .47-.23.71-.7a5.56 5.56 0 0 0 .35-2.3v-24a5.39 5.39 0 0 0-.35-2.28c-.24-.45-.47-.69-.71-.73h7.77c0 .1.09.4.37.9a20.33 20.33 0 0 0 1.58 2.21c.23.3.73.9 1.48 1.8s1.69 2 2.83 3.33l3.68 4.31 4 4.71 3.88 4.53h.1v-18.82a5.39 5.39 0 0 0-.35-2.28c-.24-.45-.47-.69-.7-.73h7.71c-.24 0-.47.24-.7.7a5.62 5.62 0 0 0-.35 2.36v24a5.4 5.4 0 0 0 .35 2.3c.23.47.46.7.7.7h-6.56c0-.1-.1-.41-.4-.92a17.71 17.71 0 0 0-1.61-2.18c-.5-.64-1.22-1.53-2.17-2.68s-2-2.47-3.23-4-2.48-3-3.84-4.68-2.68-3.27-4-4.91-2.57-3.15-3.73-4.56h-.15v20.89a5.4 5.4 0 0 0 .35 2.3c.23.47.46.7.7.7Zm51.29.5q-6.81 0-10.74-3.78t-3.94-11.6a18.06 18.06 0 0 1 1.76-8.14 12.35 12.35 0 0 1 5.56-5.51 21.31 21.31 0 0 1 9.86-2 51.76 51.76 0 0 1 7.89.5 21 21 0 0 1 4.28 1v1l1 4.5a16.7 16.7 0 0 0-4.76-2 29.74 29.74 0 0 0-8.32-1 13.23 13.23 0 0 0-6.61 1.48 9 9 0 0 0-3.83 4.08 14 14 0 0 0-1.23 6.06 15.23 15.23 0 0 0 1.13 6.16 8 8 0 0 0 3.58 3.88 13.51 13.51 0 0 0 6.41 1.33 15.82 15.82 0 0 0 5.41-.75 5.7 5.7 0 0 0 2.86-2 5 5 0 0 0 .85-2.78v-1.3a2.6 2.6 0 0 0-.18-1.33c-.11-.12-.56-.18-1.32-.18h-1.61a23.1 23.1 0 0 0-4.48.35 6.39 6.39 0 0 0-2.13.7l.5-3.95v-1h15.78c-.23 0-.46.27-.68.72a5.85 5.85 0 0 0-.32 2.28v9.82a6 6 0 0 0 .32 2.3c.22.47.45.7.68.7h-6.56v-1.15l.1-1.4-.1-.1a8.86 8.86 0 0 1-2.11 1.58 12.08 12.08 0 0 1-3.47 1.15 30.35 30.35 0 0 1-5.58.38Z" style="fill:#e5066e"/><text style="font-size:8.5px;fill:#e50c6e;font-family:SpaceGrotesk-Regular,Space Grotesk;letter-spacing:.1em" transform="translate(72.83 170.88)">DIAMOND JEWEL<tspan x="77.36" y="0" style="letter-spacing:.09em">R</tspan><tspan x="83.46" y="0" style="letter-spacing:.09em">Y</tspan></text></svg>