<svg xmlns="http://www.w3.org/2000/svg" xml:space="preserve" style="enable-background:new 206.1-3.7 263.5 56.8" viewBox="206.1 -3.7 263.5 56.8"><path d="m325 52.9 18.3-56.6h-16.8L316 34.2 305.5-3.7h-19.4l18.7 56.6zm22.8-56.6h18.1v56.6h-18.1zm74.8 40.9v-.3c0-7.9-4.7-12-11.3-13.2 6.3-1.5 9.8-5.6 9.8-12.2v-.3c0-8.4-5.4-14.8-19.3-14.8H375V53h26.6c14.6-.1 21-5.8 21-15.8M392.5 8h5.4c4.4 0 6.3 1.7 6.3 5.1v.3c0 3.5-1.7 5-6.2 5h-5.5V8zm0 33.1v-12h5.3c5.1 0 7.1 2.1 7.1 5.8v.3c0 3.8-2.1 5.9-6.7 5.9h-5.7zM446 30.7h17.8V18.1H446v-8h22.3V-3.7h-40.2v56.6h41.5V39.2H446zm-188.6-16v.3c0 7.8-4 12.3-9.6 14.8l12.5 23.1h24.2V39.2h-23.6v-8.5h17.7V18.1h-17.7v-8h22.3V-3.7H243v.9c9.5 2.2 14.4 8.1 14.4 17.5"/><path d="M224 33.5h2.9l1.6 2.9 8.9 16.5h18.9l-13-23.1c5.6-2.5 9.6-7 9.6-14.8v-.3c0-7.8-3.4-13.2-10-16-3.6-1.6-8.2-2.3-13.7-2.3h-23.1V53H224V33.5zm0-23.7h4.5c4.7 0 7.1 1.6 7.1 5.7v.3c0 4-2.3 6.1-7.1 6.2H224V9.8z"/></svg>