<svg xmlns="http://www.w3.org/2000/svg" width="181" height="50" fill="none"><g fill-rule="evenodd" clip-path="url(#a)" clip-rule="evenodd"><path fill="#313131" d="M11.789 5.969a23.732 23.732 0 0 0-7.866 9.026 23.695 23.695 0 0 0 1.13 23.13 23.741 23.741 0 0 0 8.708 8.22 23.78 23.78 0 0 0 23.19-.18 23.74 23.74 0 0 0 8.58-8.351 23.7 23.7 0 0 0 3.407-11.472 22.373 22.373 0 0 1-4.19 9.687 22.412 22.412 0 0 1-8.167 6.695 22.444 22.444 0 0 1-20.53-.541 22.406 22.406 0 0 1-7.803-7.116 22.369 22.369 0 0 1-2.397-20.37A22.386 22.386 0 0 1 11.79 5.97Z"/><path fill="#66B5FF" d="M36.421 38.948a20.025 20.025 0 0 0 7.861-6.349 19.994 19.994 0 0 0 2.45-19.39 20.034 20.034 0 0 0-6.034-8.107 20.067 20.067 0 0 0-19.3-3.245 20.033 20.033 0 0 0-8.354 5.688 19.998 19.998 0 0 0-4.509 9.038 18.878 18.878 0 0 1 4.898-7.44 18.912 18.912 0 0 1 7.768-4.372 18.939 18.939 0 0 1 16.986 3.454 18.908 18.908 0 0 1 5.443 7.058 18.876 18.876 0 0 1-.993 17.281 18.89 18.89 0 0 1-6.216 6.384Z"/><path fill="#313131" d="M39.208 32.24c-.217-.579-1.116-.895-2.12-.792-.27.052-.585.103-.85.157-1.27.43-7.734 2.584-7.784 2.638l-.16.056.108.103c.744.58 1.112 1.217.9 1.744-.216.842-1.271 1.318-2.966 1.423-1.59.16-3.496 0-5.777-.42.267-.007.533.01.796.052 1.64 0 3.178 0 4.4-.108 1.854-.157 2.754-.58 2.862-1.268.051-.471-.217-.844-.852-1.158-.688-.368-2.162-.528-3.548-.792-1.007-.16-1.855-.263-2.544-.431-2.225-.584-4.506-1.163-7.206-.952-.426.028-.85.08-1.271.158a74.826 74.826 0 0 0-6.146 1.427l-.264.052 3.126 4.433c.559-.12 1.124-.21 1.693-.265a9.074 9.074 0 0 1 2.069.052c.845.161 3.026.579 5.085 1.003 2.122.476 4.185.844 4.928.948.44.045.883.064 1.326.055 1.06-.107 2.118-.686 3.126-1.214.315-.215.633-.316.955-.527l9.214-4.953c1.06-.63 1.06-1.16.904-1.423l-.005.002Z"/><path fill="#66B5FF" d="M19.449 18.052a1.787 1.787 0 0 1 1.638 1.797c-.086.837-.877 1.587-1.718 1.545a1.675 1.675 0 0 1-1.633-1.71 1.67 1.67 0 0 1 1.713-1.632Zm11.164-6.895a2.21 2.21 0 0 1-1.404 2.065 2.23 2.23 0 0 1-.866.153 2.247 2.247 0 0 1-2.113-1.447 2.238 2.238 0 0 1-.143-.89 2.255 2.255 0 0 1 2.32-2.194 2.26 2.26 0 0 1 2.197 2.316l.01-.003Z"/><path fill="#66B5FF" d="M25.429 18.16a5.23 5.23 0 0 0-.548.876c-.793 1.636-2.05 2.926-3.304 4.18a1.525 1.525 0 0 0-.49 1.212v6.602c0 .468.043.959-.587 1.005-.627 0-.793-.422-.753-.962 0-1.09.044-2.172 0-3.272 0-.25.168-.795-.333-.795-.468 0-.295.467-.295.753-.042 1.044 0 2.131 0 3.134 0 .544.04 1.13-.702 1.13-.714-.046-.63-.586-.63-1.049v-6.001c0-.337.125-.669-.418-1.258 0 .963.042 1.676 0 2.337 0 .419.084.877-.543.877-.543 0-.501-.468-.501-.834 0-.755 0-1.545.04-2.338 0-.836.419-1.295 1.296-1.252.702.04 1.465 0 2.137 0 1.297 0 1.798-.468 2.383-1.636a40.108 40.108 0 0 1 3.765-6.1c.42-.545.962-.921 1.716-.25a1.148 1.148 0 0 0 1.505-.045c.587-.54 1.006-.29 1.465.126.627.587 1.046 1.337 1.47 2.05.702 1.127 1.378 2.253 2.087 3.384.337.54.754 1.169 0 1.59-.627.413-.92-.337-1.17-.755-.588-.919-1.13-1.84-1.884-2.674.419 1.42.88 2.884 1.296 4.345.38 1.294.211 1.589-1.17 1.544-.702-.04-.835.255-.835.882.044 1.834 0 3.716.044 5.609 0 .666 0 1.416-.882 1.416-.836 0-.796-.75-.796-1.377 0-1.839 0-3.636-.04-5.475 0-.332.295-.959-.332-1-.702 0-.419.626-.419.957v5.687c0 .542-.087 1.087-.672 1.208-.793.168-1.001-.467-1.001-1.084 0-1.922-.042-3.843 0-5.81.04-.748-.169-1.043-1.007-1.003-1.13.044-1.34-.292-1.044-1.335.417-1.503.878-2.965 1.295-4.47-.04-.045-.082-.045-.127-.127l-.016-.002Z"/></g><path fill="#313131" d="M60 31.54v-9.856c0-.825.349-1.617.97-2.2a3.424 3.424 0 0 1 2.343-.912v5.242H65.6c.365.003.727-.073 1.055-.223a1.72 1.72 0 0 0 .76-.666c.19-.316.285-.675.276-1.037v-.204c0-.825.349-1.617.97-2.2a3.424 3.424 0 0 1 2.343-.912v3.334a4.023 4.023 0 0 1-.632 2.223 4.789 4.789 0 0 1-1.656 1.577l3.273 5.834h-1.913a3.476 3.476 0 0 1-1.755-.39 2.602 2.602 0 0 1-1.025-1.073l-1.873-3.667h-2.11v2.018a3.02 3.02 0 0 1-.97 2.2A3.424 3.424 0 0 1 60 31.54Zm14.216-10.132a1.88 1.88 0 0 1-1.264-.5 1.658 1.658 0 0 1-.532-1.188 1.562 1.562 0 0 1 .136-.648 1.65 1.65 0 0 1 .396-.546 1.74 1.74 0 0 1 .575-.377 1.836 1.836 0 0 1 1.374 0c.217.087.413.216.575.377.17.155.305.34.396.546.091.205.138.426.136.648a1.658 1.658 0 0 1-.532 1.188c-.336.316-.79.495-1.265.5h.005ZM72.68 31.984v-9.502h3.075v6.613c0 .766-.324 1.501-.9 2.043a3.18 3.18 0 0 1-2.175.846Zm8.606-.591a4.698 4.698 0 0 1-1.696-1.065 4.745 4.745 0 0 1-1.074-1.64 5.53 5.53 0 0 1-.375-2.055 4.942 4.942 0 0 1 .622-2.52 4.468 4.468 0 0 1 1.705-1.687 5.055 5.055 0 0 1 2.524-.612 4.39 4.39 0 0 1 1.153.148c.352.095.684.242.986.436a2.9 2.9 0 0 1 .739.676h.058v-5.056c.81 0 1.588.303 2.161.841s.895 1.269.895 2.03v5.725a5.369 5.369 0 0 1-.67 2.723 4.52 4.52 0 0 1-1.893 1.797 6.17 6.17 0 0 1-2.86.631 6.507 6.507 0 0 1-2.275-.372Zm3.51-2.436c.351-.218.628-.527.798-.889.19-.399.284-.832.276-1.269a2.796 2.796 0 0 0-.276-1.259 2.131 2.131 0 0 0-.798-.88 2.29 2.29 0 0 0-1.232-.326c-.433-.01-.86.104-1.223.327a2.22 2.22 0 0 0-.798.88 2.71 2.71 0 0 0-.286 1.258c-.008.438.09.872.286 1.27.174.359.45.666.798.888.363.223.79.337 1.223.327.436.01.866-.105 1.232-.327Zm11.405 2.805a5.964 5.964 0 0 1-2.8-.648 5.25 5.25 0 0 1-1.573-1.29 4.893 4.893 0 0 1-.926-1.757 4.715 4.715 0 0 1-.137-1.957 4.809 4.809 0 0 1 .674-1.856 5.137 5.137 0 0 1 1.962-1.78 6.24 6.24 0 0 1 2.795-.658 6.24 6.24 0 0 1 2.795.657 5.165 5.165 0 0 1 1.953 1.779 4.663 4.663 0 0 1 .569 3.822 4.823 4.823 0 0 1-.936 1.76 5.184 5.184 0 0 1-1.596 1.278 5.919 5.919 0 0 1-2.78.65Zm0-2.5a2.33 2.33 0 0 0 1.262-.334 2.32 2.32 0 0 0 .829-.89c.202-.391.303-.823.295-1.258a2.599 2.599 0 0 0-.295-1.242 2.315 2.315 0 0 0-.829-.889 2.329 2.329 0 0 0-1.262-.333c-.45-.01-.892.106-1.271.334-.36.22-.65.526-.839.888a2.599 2.599 0 0 0-.295 1.242c-.008.435.093.867.295 1.259.19.362.48.669.839.89.379.226.822.343 1.271.333Z"/><path fill="#66B5FF" d="M106.129 28.593V18.46h5.763a5.39 5.39 0 0 1 2.402.532 4.378 4.378 0 0 1 1.735 1.482c.441.668.665 1.43.647 2.205a3.88 3.88 0 0 1-.637 2.197 4.283 4.283 0 0 1-1.725 1.491 5.483 5.483 0 0 1-2.441.532h-3.411v3.767a2.49 2.49 0 0 1-1.649-.607 1.97 1.97 0 0 1-.684-1.466Zm2.333-3.523h3.137a3.34 3.34 0 0 0 1.372-.279c.411-.18.755-.462.99-.811a2.24 2.24 0 0 0 .363-1.3 2.216 2.216 0 0 0-.363-1.28 2.377 2.377 0 0 0-.979-.821 3.187 3.187 0 0 0-1.363-.288h-3.157v4.779Zm10.116 5.598v-6.366c-.035-.34.014-.682.145-1.003.13-.321.339-.613.61-.854.271-.241.599-.426.96-.542.361-.116.746-.16 1.128-.13h.49c.509 0 .998.181 1.358.502.36.32.563.755.563 1.208h-2a1.079 1.079 0 0 0-.396.053.994.994 0 0 0-.339.191.897.897 0 0 0-.207.308.817.817 0 0 0-.058.355v4.272a1.9 1.9 0 0 1-.661 1.419 2.402 2.402 0 0 1-1.594.587h.001Zm11.586.211a5.886 5.886 0 0 1-2.744-.619 4.99 4.99 0 0 1-1.916-1.707 4.278 4.278 0 0 1-.701-2.33c0-.818.242-1.622.701-2.33a4.991 4.991 0 0 1 1.916-1.708 6.29 6.29 0 0 1 2.734-.619 6.28 6.28 0 0 1 2.735.62c.796.41 1.457.998 1.916 1.706.459.71.701 1.513.701 2.33 0 .819-.242 1.622-.701 2.33a4.99 4.99 0 0 1-1.916 1.708 5.846 5.846 0 0 1-2.725.619Zm0-1.71a3.134 3.134 0 0 0 1.576-.374 2.675 2.675 0 0 0 1.09-1.081c.245-.467.372-.976.372-1.491 0-.515-.127-1.024-.372-1.491a2.675 2.675 0 0 0-1.09-1.081 3.134 3.134 0 0 0-1.576-.375 3.17 3.17 0 0 0-1.617.392 2.829 2.829 0 0 0-1.059 1.064 3.135 3.135 0 0 0-.382 1.49c0 .517.131 1.027.382 1.492.24.432.605.8 1.059 1.064.484.27 1.046.406 1.617.392Zm5.94-7.395h7.077v1.709h-5.156c-.51 0-.998-.18-1.359-.5a1.62 1.62 0 0 1-.562-1.21Zm4.567 8.894a3.107 3.107 0 0 1-1.123-.148 2.88 2.88 0 0 1-.965-.532 2.485 2.485 0 0 1-.588-.856 2.26 2.26 0 0 1-.166-.992v-6.61c0-.528.235-1.034.655-1.407a2.382 2.382 0 0 1 1.58-.582v8.51c-.006.12.016.24.063.352a.895.895 0 0 0 .211.302.978.978 0 0 0 .333.195c.124.043.258.063.392.058h2.098c0 .453-.203.888-.563 1.209-.36.32-.849.5-1.359.5h-.568Zm9.332-.001a7.15 7.15 0 0 1-2.95-.567 4.56 4.56 0 0 1-1.984-1.588 3.849 3.849 0 0 1-.693-2.292 4.62 4.62 0 0 1 .628-2.424 4.415 4.415 0 0 1 1.725-1.64 5.244 5.244 0 0 1 2.529-.593 5.173 5.173 0 0 1 2.647.61c.685.399 1.22.97 1.539 1.64a5.192 5.192 0 0 1 .48 2.703 1.656 1.656 0 0 1-.058.349h-7.097c.06.427.257.83.568 1.16.309.313.7.552 1.138.697a4.683 4.683 0 0 0 1.529.236h2.686c0 .453-.202.888-.563 1.209-.36.32-.849.5-1.358.5h-.766Zm-3.252-5.162h4.94a3.323 3.323 0 0 0-.107-.662 2.296 2.296 0 0 0-.275-.628 1.976 1.976 0 0 0-.47-.513 2.307 2.307 0 0 0-.677-.349 2.844 2.844 0 0 0-.901-.13 2.43 2.43 0 0 0-1.802.724c-.21.215-.372.463-.481.732-.11.267-.186.544-.227.826Zm14.114 5.164a6.22 6.22 0 0 1-2.766-.593 4.942 4.942 0 0 1-1.922-1.595 4.025 4.025 0 0 1-.705-2.259c0-.796.244-1.577.705-2.258a4.946 4.946 0 0 1 1.922-1.596 6.23 6.23 0 0 1 2.766-.593h1.216v1.71h-1.255a3.45 3.45 0 0 0-1.598.358 2.708 2.708 0 0 0-1.087.986 2.7 2.7 0 0 0-.393 1.395c0 .486.135.966.393 1.395.253.411.629.753 1.087.985a3.45 3.45 0 0 0 1.598.36h.331c.51 0 .998.18 1.359.5.36.32.562.755.562 1.208h-2.213v-.003Zm2.058-7.187v-1.709H170c0 .453-.202.888-.562 1.209-.361.32-.849.5-1.359.5h-5.156Zm4.568 7.185c-.382.02-.764-.03-1.123-.148a2.861 2.861 0 0 1-.965-.532 2.475 2.475 0 0 1-.589-.855 2.26 2.26 0 0 1-.166-.993v-8.598c.593 0 1.161.21 1.58.582.42.373.655.88.655 1.407v6.521a.82.82 0 0 0 .063.352.896.896 0 0 0 .211.303 1.045 1.045 0 0 0 .726.252h.176c.51 0 .999.18 1.359.501.36.32.563.755.563 1.209h-2.49Z"/><defs><clipPath id="a"><path fill="#fff" d="M0 0h50v50H0z"/></clipPath></defs></svg>