<svg xmlns="http://www.w3.org/2000/svg" viewBox="0 0 511.999 511" fill="currentColor">
  <path d="M175.031 337.516c3.91 3.902 10.242 3.902 14.14 0 3.911-3.91 3.911-10.239 0-14.141-3.898-3.91-10.23-3.91-14.14 0-3.898 3.902-3.898 10.23 0 14.14Zm42.438-28.289 95.691-95.754c3.903-3.907 3.903-10.239-.004-14.145-3.91-3.902-10.238-3.898-14.144.004l-95.692 95.754c-3.906 3.906-3.902 10.238.004 14.144 3.906 3.903 10.239 3.903 14.145-.003Zm0 0" />
  <path d="m157.52 270.176-86.13 86.129a10.027 10.027 0 0 0-2.265 3.507 1.106 1.106 0 0 0-.043.094C61.129 381.414 37 446.656 27.508 472.32a10.004 10.004 0 0 0 12.863 12.844l112.281-41.703a10.284 10.284 0 0 0 3.59-2.3l86.121-86.122 153.551 154.422a10.01 10.01 0 0 0 7.094 2.95h.008a10.014 10.014 0 0 0 7.093-2.962l98.993-99.914c3.875-3.91 3.859-10.215-.032-14.11l-153.543-153.55 113.059-113.059c23.453-23.425 23.469-61.418.004-84.855-23.442-23.453-61.399-23.457-84.856 0l-113.07 113.07C264.867 151.234 125.801 12.164 117.062 3.43a9.993 9.993 0 0 0-14.105-.035l-99.992 98.98a10.004 10.004 0 0 0-.016 14.2Zm120.214-91.93.004-.004v-.004l62.36-62.355 56.566 56.57-62.348 62.344c0 .004 0 .004-.004.004v.004l-185.14 185.14-56.567-56.57Zm97.723-97.723 56.566 56.57-21.214 21.216-56.57-56.567ZM89.836 445.457l-22.68-22.68 15.27-41.293 48.656 48.657Zm-30.316-2.031 9.69 9.691-15.39 5.715Zm305.062-164.211-42.848 42.84c-3.906 3.902-3.906 10.234 0 14.14 3.903 3.907 10.235 3.907 14.141.004l42.848-42.84 30.285 30.286-28.703 28.699c-3.903 3.906-3.903 10.238 0 14.144 3.906 3.907 10.238 3.903 14.144 0l28.703-28.703 30.29 30.293-42.844 42.84c-3.907 3.902-3.907 10.234 0 14.14 3.902 3.907 10.234 3.907 14.14 0l42.848-42.835 20.305 20.308c-84.442 84.367-84.895 85.684-84.895 85.684l-146.488-147.32 84.879-84.88Zm89.867-221.11c15.633 15.614 15.64 40.938-.004 56.567l-8.277 8.277-56.57-56.566 8.28-8.281c15.63-15.633 40.935-15.645 56.571.003ZM132.27 46.922 89.43 89.75c-3.902 3.902-3.902 10.234 0 14.14 3.907 3.907 10.239 3.907 14.145.005l42.84-42.833 30.285 30.29-28.695 28.687c-3.906 3.906-3.906 10.238-.004 14.145a10.006 10.006 0 0 0 14.145 0l28.699-28.692 28.27 28.274-42.833 42.836c-3.902 3.906-3.902 10.238 0 14.144 3.907 3.902 10.239 3.906 14.145-.004l42.832-42.836 23.265 23.266-84.863 84.863L24.2 109.496s1.386-.453 85.757-84.89Zm0 0" />
</svg>
