<svg xmlns="http://www.w3.org/2000/svg" viewBox="0 0 75 75" fill="currentColor">
  <path d="M52.592 37.601a9.946 9.946 0 0 0 4.053-9.244.757.757 0 0 0-.835-.655.75.75 0 0 0-.655.834c.388 3.216-1.098 6.16-3.44 7.849a.75.75 0 0 0 .877 1.216Zm2.343-11.561a.75.75 0 0 0 .665-1.094c-.089-.171-.182-.34-.28-.505a.75.75 0 0 0-1.291.765c.248.417.368.835.906.835Zm.483-12.81 1.598-2.305a.75.75 0 0 0-1.232-.856l-1.599 2.305a.75.75 0 0 0 1.233.855Zm11.415 11.88a.75.75 0 0 0-.198-1.488l-3.365.445a.75.75 0 0 0 .097 1.493c.079 0-.484.068 3.466-.45ZM39.649 10.54a.75.75 0 0 0 .644-.842l-.42-3.136a.75.75 0 1 0-1.486.198l.42 3.136a.75.75 0 0 0 .842.644Zm-10.996 7.98c.754 0 1.036-.992.394-1.387l-2.696-1.663a.75.75 0 1 0-.787 1.276c2.762 1.66 2.715 1.775 3.089 1.775ZM61.18 38.599a.75.75 0 0 0 .245 1.032c2.934 1.764 2.878 1.875 3.252 1.875.755 0 1.036-.993.395-1.388l-2.86-1.764a.75.75 0 0 0-1.032.245Z" />
  <path d="M7.516 68.34c0 .413.336.75.75.75h43.382a.75.75 0 0 0 0-1.5H24.456c3.406-1.227 7.286-2.268 9.895-4.17 4.264-3.106.508-4.519 2.74-10.668 2.722.96 3.23-1.18 3.708-1.96.592-.954-.288-2.114-1.277-2.724 2.763-2.535 6.616-3.252 9.992-4.17 5.99-1.628 10.6-7.08 11.208-13.257.78-7.91-4.998-15.235-12.812-17.011-4.073-.924-8.34-.237-11.707 1.893-5.246 3.32-8.047 9.886-6.812 15.97.955 4.694 2.044 7.307.513 10.672-.72-.44-1.579-.858-2.437-.635-.805.206-.802.654-1.806 2.291-.528.852.079 1.91.913 2.597-4.565 4.732-7.33 1.942-8.195 7.155-.617 3.74.074 8.229.091 12.18.004.686.257 1.328.685 1.836H8.266a.75.75 0 0 0-.75.75Zm30.757-32.745a4.995 4.995 0 0 0 1.68.812c-1.23 3.16-2.858 7.154-4.16 9.37l-2.93-1.798a112.07 112.07 0 0 0 5.41-8.384Zm.86-6.797c.141.057.205.465-.294 2.078-.119.344-.211.9-.806 2.075-.679-1.677.362-4.457 1.1-4.153Zm-8.271 2.396c-1.098-5.4 1.486-11.457 6.143-14.404 9.762-6.178 23.36 2.21 22.225 13.703-.54 5.483-4.793 10.513-10.11 11.959-3.982 1.08-7.95 1.844-10.924 4.8l-1.126-.691c1.429-2.422 3.141-6.663 4.44-10.015 2.2-.192 4.104-2.04 4.35-4.24.243-2.186-1.591-3.12-2.993-2.116-.92.658-1.151 1.648-2.368 4.805a3.492 3.492 0 0 1-1.473-.716c1.018-1.845 1.113-2.6 1.246-2.96.378-1.221 1.01-3.264-.572-3.91-2.465-1.003-3.857 3.127-3.24 5.549.142.556.391 1.073.72 1.532a110.317 110.317 0 0 1-5.598 8.704l-.392-.24c1.911-4.023.566-7.337-.328-11.76Zm11.288 3.684c.76-1.974 1.189-3.581 1.916-3.581.677 0 .373 2.744-1.916 3.58ZM20.534 51.875c.985-1.095 3.831-.82 7.346-4.623.816.499 7.82 4.844 7.845 4.86-1.767 4.726-.305 7.295-.825 8.622-.216.555-.753.979-1.432 1.474-2.883 2.1-7.8 3.153-11.651 4.797-.152.065-.309.09-.465.096l5.315-8.621c1.403.19 2.427-.803 2.538-1.914a2.142 2.142 0 0 0-1.127-2.08c-1.734-.886-4.14 1.04-2.697 3.22l-5.29 8.58a1.38 1.38 0 0 1-.12-.54c-.017-3.962-1.03-12.106.563-13.87Z" />
</svg>
