<svg xmlns="http://www.w3.org/2000/svg" viewBox="0 0 60 60" fill="currentColor">
  <path d="M54 16a13.964 13.964 0 0 1-2.393 7.806l-1.082-2.09a11.984 11.984 0 0 0-16.6-16.061 19.239 19.239 0 0 0-1.566-1.372A13.742 13.742 0 0 1 40 2a14.015 14.015 0 0 1 14 14Z" />
  <circle cx="48" cy="40" r="2" />
  <path d="M20 38A18 18 0 1 1 30.105 5.112a17.061 17.061 0 0 1 2.951 2.506A17.879 17.879 0 0 1 37.1 25.571a9.811 9.811 0 0 1-1.849-.778 15.986 15.986 0 1 0-2.836 5.287 15.507 15.507 0 0 0 1.871.858A17.93 17.93 0 0 1 20 38Z" />
  <path d="M36.148 29.456a13.512 13.512 0 0 1-3.473-1.527 13.982 13.982 0 0 1-4.57-19.3 13.639 13.639 0 0 1 1.551 1.29 11.994 11.994 0 0 0 3.85 16.169 11.845 11.845 0 0 0 4.043 1.66 12.066 12.066 0 0 0 4.793.021l-1.116 2.157a13.825 13.825 0 0 1-5.078-.47Z" />
  <rect x="40" y="51" width="16" height="7" rx="1" />
  <path d="M57.605 42.136 52.31 49h-8.62l-5.29-6.865a1.9 1.9 0 0 1-.183-2.032L47 23.121v13.021a4 4 0 1 0 2 0V23.121L57.787 40.1a1.9 1.9 0 0 1-.182 2.036Z" />
</svg>
